<?xml version="1.0" standalone="no"?>
<!DOCTYPE svg PUBLIC "-//W3C//DTD SVG 20010904//EN"
 "http://www.w3.org/TR/2001/REC-SVG-20010904/DTD/svg10.dtd">
<svg version="1.0" xmlns="http://www.w3.org/2000/svg"
 width="1312.000000pt" height="608.000000pt" viewBox="0 0 1312.000000 608.000000"
 preserveAspectRatio="xMidYMid meet">

<g transform="translate(0.000000,608.000000) scale(0.100000,-0.100000)"
fill="#000000" stroke="none">
<path d="M2306 5070 c-232 -37 -428 -143 -559 -305 -138 -171 -214 -403 -232
-715 -12 -214 25 -427 106 -599 88 -188 175 -298 431 -542 490 -468 578 -562
642 -693 65 -131 79 -206 80 -416 1 -178 0 -187 -24 -235 -31 -63 -88 -95
-166 -95 -97 0 -149 37 -186 129 -21 53 -23 72 -26 393 l-3 338 -430 0 -429 0
0 -237 c0 -577 60 -857 232 -1087 163 -218 476 -336 887 -336 338 0 603 103
748 291 53 69 126 207 157 295 67 192 95 364 103 634 8 316 -24 506 -121 714
-97 207 -203 335 -577 696 -397 383 -463 449 -507 518 -85 132 -110 284 -62
371 41 73 67 86 168 86 75 0 91 -3 120 -23 61 -44 67 -67 70 -269 l4 -183 440
0 441 0 -6 143 c-26 577 -208 913 -574 1058 -132 52 -246 70 -468 74 -110 2
-227 0 -259 -5z"/>
<path d="M3805 5013 c3 -16 106 -980 231 -2143 124 -1163 227 -2125 230 -2137
l4 -23 528 0 527 0 98 1003 c54 551 102 1010 106 1020 3 10 53 -431 109 -980
57 -549 105 -1008 108 -1020 l4 -23 520 0 c386 0 520 3 520 12 0 14 458 4219
465 4276 l6 42 -430 0 -431 0 0 -22 c-1 -13 -52 -619 -114 -1348 -75 -880
-115 -1310 -119 -1280 -4 25 -54 608 -112 1295 -57 688 -107 1274 -110 1303
l-6 52 -405 0 c-222 0 -404 -3 -404 -7 0 -26 -232 -2625 -237 -2653 -4 -24
-228 2420 -243 2653 0 4 -191 7 -425 7 l-424 0 4 -27z"/>
<path d="M7746 5008 c-3 -18 -96 -973 -206 -2123 -110 -1149 -203 -2109 -206
-2133 l-6 -42 420 0 421 0 5 32 c3 18 15 161 26 318 11 157 23 300 26 317 l5
33 259 0 c210 0 260 -3 260 -13 0 -8 14 -164 30 -347 17 -183 30 -335 30 -337
0 -2 185 -3 410 -3 226 0 410 2 410 4 0 9 -400 4228 -405 4274 l-6 52 -734 0
-734 0 -5 -32z m748 -740 c5 -30 186 -2129 186 -2156 0 -9 -50 -12 -195 -12
-132 0 -195 3 -195 11 0 6 36 490 80 1076 44 587 80 1077 80 1090 0 16 6 23
20 23 14 0 21 -9 24 -32z"/>
<path d="M9900 2875 l0 -2165 425 0 425 0 0 859 0 859 283 4 c250 4 291 7 361
26 175 48 308 143 404 286 106 158 163 358 193 679 15 166 7 585 -15 722 -81
512 -277 772 -656 872 -58 15 -142 17 -742 20 l-678 4 0 -2166z m1074 1354
c67 -24 106 -68 129 -142 38 -125 53 -311 38 -486 -20 -226 -55 -312 -143
-355 -49 -24 -154 -45 -220 -46 l-28 0 0 525 0 525 85 0 c61 0 100 -6 139 -21z"/>
</g>
</svg>
